<svg xmlns="http://www.w3.org/2000/svg" width="14" height="24" viewBox="0 0 14 24">
  <path fill="#FFFFFF" fill-rule="evenodd" d="M98.5862069,388 L89.4137931,388 C88.0862069,388 87,389.086207 87,390.413793 L87,409.241379 C87,410.568966 88.0862069,411.655172 89.4137931,411.655172 L98.5862069,411.655172 C99.9137931,411.655172 101,410.568966 101,409.241379 L101,390.413793 C101,389.086207 99.9137931,388 98.5862069,388 Z M93.9269425,410.375218 C93.2758621,410.375218 92.720046,409.844828 92.720046,409.168322 C92.720046,408.517241 93.2504368,407.961425 93.9269425,407.961425 C94.6034483,407.961425 95.1338391,408.492138 95.1338391,409.168322 C95.1338391,409.844828 94.578023,410.375218 93.9269425,410.375218 Z M99.0689655,407.068966 L88.9310345,407.068966 L88.9310345,391.137931 L99.0689655,391.137931 L99.0689655,407.068966 Z" transform="translate(-87 -388)"/>
</svg>
