<svg xmlns="http://www.w3.org/2000/svg" width="18" height="19" viewBox="0 0 18 19">
  <path fill="#85003C" fill-rule="evenodd" d="M1004.42447,211.542939 L1001.20691,208.305334 C1002.0815,207.038132 1002.59498,205.501107 1002.59498,203.844806 C1002.59498,199.518775 999.095783,196 994.796527,196 C990.498096,196 987,199.518775 987,203.844806 C987,208.172221 990.498096,211.690996 994.797627,211.690996 C995.982453,211.690996 997.105122,211.422833 998.111729,210.945176 L1001.56472,214.420502 C1001.93738,214.79355 1002.43381,215 1002.96242,215 C1003.50395,215 1004.01523,214.785802 1004.40192,214.397809 C1005.19071,213.60439 1005.20033,212.323351 1004.42447,211.542939 Z M990.118831,203.844806 C990.118831,201.249243 992.218129,199.137148 994.797627,199.137148 C997.376851,199.137148 999.476149,201.249243 999.476149,203.844806 C999.476149,206.441476 997.376851,208.553848 994.797627,208.553848 C992.218129,208.552741 990.118831,206.441476 990.118831,203.844806 Z" transform="translate(-987 -196)"/>
</svg>
